<svg xmlns="http://www.w3.org/2000/svg" viewBox="0 0 24 24" id="Quote">
  <g fill="#000000" class="color000000 svgShape">
    <g fill="#000000" class="color000000 svgShape">
      <path d="M4 20h5a2 2 0 0 0 2-2v-5a2 2 0 0 0-2-2H4.09A6 6 0 0 1 10 6h.5a.5.5 0 0 0 .5-.5v-1a.5.5 0 0 0-.5-.5H10a8 8 0 0 0-8 8v6a2 2 0 0 0 2 2ZM15 20h5a2 2 0 0 0 2-2v-5a2 2 0 0 0-2-2h-4.91A6 6 0 0 1 21 6h.5a.5.5 0 0 0 .5-.5v-1a.5.5 0 0 0-.5-.5H21a8 8 0 0 0-8 8v6a2 2 0 0 0 2 2Z" fill="#ffffff" class="color303c42 svgShape"></path>
    </g>
  </g>
</svg>
